<svg xmlns="http://www.w3.org/2000/svg" width="150" height="114.986" viewBox="0 0 150 114.986"><path d="M108.215,151.607a2.743,2.743,0,0,0,.836-3.955c-1.057-1.057-2.889.489-2.889,2.438C106.161,152.308,106.24,152.365,108.215,151.607Zm7.288-1.787c0-.672.42-.935.959-.6.571.353.808.139.585-.529-.213-.639-1.632-1.123-3.295-1.125-2.328,0-2.974.362-3.185,1.8-.222,1.513.152,1.789,2.335,1.727,1.633-.046,2.6-.518,2.6-1.269Zm-4.246-.245a.878.878,0,0,1,.9-.849c.495,0,.663.382.374.849s-.693.849-.9.849S111.257,150.042,111.257,149.575Zm11.752-.465c1.332-2.924,1.328-2.932-1.488-2.932-2.4,0-2.444.08-1.512,2.548,1.174,3.111,1.726,3.181,3,.385Zm4.382.515a2.809,2.809,0,0,0-.753-2.114c-1.034-.639-2.92,1.779-2.242,2.876A1.576,1.576,0,0,0,127.391,149.625Zm20.381.975a6.347,6.347,0,0,0-1.213-2.349c-1.12-1.522-1.257-1.536-1.781-.184-.493,1.271-.729,1.3-1.784.248-1.541-1.541-3.753-.758-3.157,1.118.262.824-.271.531-1.275-.7-1.538-1.888-1.786-1.957-2.293-.637-.622,1.62-2.215,2.067-1.873.525a1.251,1.251,0,0,0-.849-1.345c-.6-.22-1.073.287-1.087,1.168-.024,1.44-.089,1.447-.872.106-1.043-1.79-2.948-1.194-3.111.974-.111,1.478.627,1.608,9.587,1.69C143.4,151.261,147.772,150.986,147.772,150.6Zm-6.794-1.025a.878.878,0,0,1,.9-.849c.495,0,.663.382.374.849s-.693.849-.9.849S140.978,150.042,140.978,149.575Zm12.738,1.218a7.979,7.979,0,0,0-.862-2.091c-1.048-1.959-2.978-1.41-3.152.9-.094,1.245.406,1.676,1.944,1.676C152.785,151.273,153.716,151.057,153.716,150.793Zm7.643,0a9.247,9.247,0,0,0-.961-2.276c-.931-1.739-1-1.745-2.123-.206-1.113,1.522-1.162,1.511-1.162-.272,0-1.023-.382-1.861-.849-1.861s-.849,1.146-.849,2.548c0,2.345.236,2.548,2.972,2.548C160.021,151.273,161.359,151.057,161.359,150.793Zm6.726-1.006c.824-1.415.867-1.415.891,0,.014.817.342,1.486.728,1.486s.528-1.185.316-2.634c-.237-1.615-.632-2.237-1.021-1.608-.454.734-.8.758-1.215.086a3.291,3.291,0,0,0-2.507-.94c-1.657,0-1.874.356-1.552,2.548.427,2.909,2.928,3.518,4.359,1.061Zm-2.48-1.061c0-1.585.226-1.812,1.019-1.019s.793,1.245,0,2.038S165.6,150.311,165.6,148.726Zm9.341,1.111c0,1.961,3.365,1.913,3.5-.05.094-1.415.117-1.415.487,0,.214.817.765,1.486,1.225,1.486s.626-.342.367-.76.1-.979.8-1.247c.734-.282,1.269-.01,1.269.642,0,.861,2.017,1.141,8.492,1.178l8.492.048v-2.478c0-2.9-1.1-3.189-2.818-.741-1.015,1.449-1.3,1.522-1.714.439a1.355,1.355,0,0,0-1.8-.8c-.716.275-1.09.841-.831,1.259s.092.76-.37.76-.962-.791-1.112-1.757l-.271-1.757-1.911,1.79-1.911,1.79-.013-1.944c-.006-1.069-.294-1.549-.637-1.066s-2.726.929-5.294.992c-11.336.277-10.357.054-9.259,2.1.958,1.789,1.03,1.8,2.153.262,1.031-1.41,1.162-1.427,1.162-.153Zm14.012-.262c-.289-.467-.12-.849.374-.849a.878.878,0,0,1,.9.849c0,.467-.169.849-.375.849S189.246,150.042,188.958,149.575Zm8.067,0a.878.878,0,0,1,.9-.849c.495,0,.663.382.374.849s-.693.849-.9.849S197.025,150.042,197.025,149.575ZM94.736,139.848c2.856-2.856,2.987-10.008.238-12.934-3.829-4.076-11.318-1.541-11.759,3.979-.56,7.012,1.925,11.04,6.812,11.04a6.845,6.845,0,0,0,4.709-2.084ZM87.1,137.5c-2.859-4.082-1.129-10,2.924-10a3.591,3.591,0,0,1,3.367,1.643C96.588,135.107,90.808,142.787,87.1,137.5Zm26.512,3.113c2.1-1.473,2.56-4.622.671-4.622-.669,0-1.466.787-1.771,1.748a1.936,1.936,0,0,1-2.393,1.486c-1.393-.2-1.9-.943-2.108-3.077-.282-2.94,1.132-5.531,2.729-5a2.084,2.084,0,0,1,.934,1.925,1.705,1.705,0,0,0,3.29.774c.648-1.688-.639-4.268-2.482-4.975-6.148-2.359-10.71,7.942-5.22,11.787C109.585,142.281,111.248,142.269,113.615,140.61Zm24.518.076c1.321-.925,1.8-2.207,1.854-4.978.087-4.326-1.061-6.2-4.274-6.973-4.714-1.136-8.776,6.762-5.562,10.814A5.732,5.732,0,0,0,138.133,140.686Zm-5.647-3c-.842-1.573-.646-1.7,2.649-1.7,3.5,0,3.535.026,2.021,1.7a4.991,4.991,0,0,1-2.649,1.7C133.9,139.385,132.986,138.62,132.486,137.686Zm0-5c0-1.47,2.855-1.846,4.154-.547,1.174,1.174,1.031,1.3-1.425,1.3C133.715,133.44,132.486,133.1,132.486,132.682Zm22.184,7.43a3.848,3.848,0,0,0,.53-2.355c-.322-1.832-2.14-2.064-2.589-.33-.219.843-.442-.091-.5-2.076a7.637,7.637,0,0,0-1.8-5.307c-1.947-1.947-2.439-2.02-5.567-.831-1.957.744-2.21,1.222-1.781,3.364.275,1.373.13,2.725-.322,3-1.369.846-.92,4.514.661,5.4C145.405,142.152,153.768,141.513,154.671,140.112Zm-9.73-1.293c-1.072-1.072-.561-1.8,1.657-2.355,2.722-.683,3.465-.091,2.04,1.627-1.13,1.362-2.745,1.68-3.7.728Zm1.132-6.227a1.588,1.588,0,0,1,2.823-1.14c.643.643-.964,2.838-2.078,2.838C146.409,134.29,146.073,133.525,146.073,132.591Zm16.191,8.462c1.072-.574,1.643-1.778,1.643-3.468,0-2.982-1.957-3.018-2.394-.045-.494,3.36-1.852,1.911-1.852-1.977,0-3.255.252-3.821,1.7-3.821.944,0,1.7-.566,1.7-1.274a1.469,1.469,0,0,0-1.6-1.274,2.29,2.29,0,0,1-2.044-1.7c-.548-2.095-2.165-2.213-2.9-.212a4.964,4.964,0,0,1-1.452,2.088c-.623.415-.576.929.15,1.656.58.58,1.054,2.422,1.054,4.092,0,3.07,1.923,6.813,3.5,6.813a7.351,7.351,0,0,0,2.5-.879Zm19.954-3.994c1.185-2.68,2.709-5.183,3.386-5.562,2.825-1.581.815-2.3-6.412-2.3-6.227,0-7.643.236-7.643,1.274a1.224,1.224,0,0,0,1.158,1.274c.637,0,1.837,1.815,2.667,4.034,2.873,7.683,3.926,7.88,6.843,1.284Zm-4.444-2.715c-.777-2.059-.711-2.581.38-3,1.926-.739,2.912.674,2.266,3.247C179.69,137.5,178.939,137.431,177.774,134.344Zm22.071,5.765c1.148-1.819.134-4.224-1.514-3.591-1.045.4-1.306-.2-1.306-3.008,0-3.042-.311-3.629-2.335-4.414-3.232-1.253-6.581.616-6.581,3.673a5.294,5.294,0,0,1-.637,2.86c-1.038,1.046-.728,3.543.606,4.877,1.743,1.743,10.606,1.444,11.767-.4Zm-9.614-1.9c0-.646.843-1.4,1.874-1.665,2.273-.594,2.571-.365,1.877,1.444-.648,1.69-3.75,1.872-3.75.221Zm.849-5.619c0-.934.551-1.7,1.224-1.7,1.773,0,2.591,1.762,1.22,2.63-1.818,1.151-2.444.913-2.444-.931ZM70.015,139.955c1.75-1.28,2.076-5.529.5-6.5-.781-.483-.809-1.082-.109-2.39,2.1-3.917-.884-6.114-8.3-6.114-5.094,0-7.813,1.4-4.437,2.279,1.578.413,1.784,1.094,1.784,5.914,0,4.059-.325,5.572-1.274,5.936-.7.269-1.274.83-1.274,1.247,0,1.22,11.37.9,13.106-.369Zm-7.445-1.137c-1-1-.6-4.568.561-5.015,1.714-.658,5.666,1.126,5.666,2.558C68.8,138.443,64.062,140.311,62.57,138.819Zm-.566-9.2c0-1.8.394-2.123,2.574-2.123,1.577,0,2.776.527,3.1,1.359.61,1.589-1.047,2.855-3.759,2.873-1.475.01-1.911-.471-1.911-2.11Zm20.381,10.714c0-.413-.764-.95-1.7-1.194-1.478-.386-1.7-1.158-1.7-5.944,0-4.874.2-5.553,1.784-5.967,3.106-.812.832-2.279-3.532-2.279-3.006,0-4.2.333-4.2,1.175,0,.646.764,1.375,1.7,1.619,1.468.384,1.7,1.158,1.7,5.7s-.231,5.315-1.7,5.7c-3.3.862-1.641,1.944,2.972,1.944,2.569,0,4.671-.338,4.671-.75Zm19.531-16.7V106.189l-3.184.675a71.923,71.923,0,0,1-10.849.648c-7.016-.025-8.2-.285-14.012-3.069A35.585,35.585,0,0,1,56.587,87.559c-6.721-13.434-4.158-30.26,6.2-40.687l3.753-3.778,2.334,7.487c2.519,8.082,6.874,15.242,11.342,18.65,2.516,1.919,2.822,2.642,3.22,7.593,1.366,17.017,17.422,32.228,35.314,33.454a35.862,35.862,0,0,0,20.935-4.328c13.308-6.972,21.816-22.273,20.58-37.011-.946-11.284-5.166-19.583-13.349-26.256l-4.66-3.8-.675,5.456c-.923,7.469-4.921,15.8-9.969,20.77-4.6,4.53-4.189,4.78-5.511-3.373-1.348-8.315-8.895-18.368-17.029-22.683l-3.757-1.993-3.987,2.115c-8.556,4.539-15.076,13.56-17.493,24.2l-1.07,4.709-3.052-3.2C74.2,59.1,69.646,48.478,69.646,41.392c0-3.43-1.986-2.719-7.509,2.684-22.052,21.578-11.671,58.478,18.452,65.582a44.593,44.593,0,0,0,11.676.636l7.1-.443v15.616c0,13.315.188,15.616,1.274,15.616s1.274-2.5,1.274-17.447Zm9.049-17.294a36.992,36.992,0,0,1-22.391-20.1c-2.109-4.535-2.338-5.949-2.329-14.371.008-7.694.348-10.187,1.925-14.137,2.206-5.525,7.157-11.5,12.665-15.293,3.743-2.576,3.893-2.6,6.664-1.283,4.062,1.937,9.446,7.043,11.972,11.352,2.8,4.776,5.374,13.072,5.374,17.312,0,1.827.224,3.321.5,3.321,1.216,0,8.1-5.58,10.372-8.408,3.366-4.188,6.69-10.9,7.427-14.992,1.1-6.1,1.577-6.282,5.539-2.117,4.5,4.726,7.222,10.63,8.5,18.412a36.186,36.186,0,0,1-20.565,38.519c-7.862,3.624-17.958,4.324-25.652,1.781Zm13.03,33.982c0-.417-.573-.978-1.274-1.247-1.467-.563-1.682-4.136-.395-6.542,1.2-2.242,2.684-2.074,2.359.268-.2,1.433.159,1.911,1.433,1.911,2.172,0,2.708-3.115.855-4.968-1.032-1.032-2.316-1.235-5.353-.845-4.493.577-6.289,1.653-4.137,2.479,1.922.737,2.051,8,.142,8-.7,0-1.274.382-1.274.849s1.72.849,3.821.849,3.821-.341,3.821-.758Zm48.4-.091c0-.467-.573-.849-1.274-.849-.991,0-1.274-1.132-1.274-5.1v-5.1H167.3q-2.548,0-2.548,1.274a1.278,1.278,0,0,0,1.274,1.274c.922,0,1.274.946,1.274,3.423,0,2.26-.433,3.59-1.274,3.912-2.519.967-1.2,2.005,2.548,2.005,2.1,0,3.821-.382,3.821-.849Zm-2.548-13.162c0-.708-.755-1.274-1.7-1.274s-1.7.566-1.7,1.274.755,1.274,1.7,1.274S169.851,127.779,169.851,127.071Z" transform="translate(-50.336 -37.06)" fill="#12215e"/></svg>