<svg xmlns="http://www.w3.org/2000/svg" xmlns:xlink="http://www.w3.org/1999/xlink" width="24" height="24" viewBox="0 0 24 24"><defs><clipPath id="a"><path d="M142.144,63.877c6.667,3.5,13.334-3.5,20,0V75.542c-6.666-3.5-13.333,3.5-20,0Z" transform="translate(-142.144 -62.866)" fill="none"/></clipPath><clipPath id="c"><rect width="24" height="24"/></clipPath></defs><g id="b" clip-path="url(#c)"><rect width="24" height="24" fill="#fff"/><g transform="translate(3 3)" fill="none" stroke="blue" stroke-width="0.1"><rect width="18" height="18" stroke="none"/><rect x="0.05" y="0.05" width="17.9" height="17.9" fill="none"/></g><g transform="translate(2 4)" fill="none" stroke="blue" stroke-width="0.1"><rect width="20" height="16" stroke="none"/><rect x="0.05" y="0.05" width="19.9" height="15.9" fill="none"/></g><g transform="translate(4 2)" fill="none" stroke="blue" stroke-width="0.1"><rect width="16" height="20" stroke="none"/><rect x="0.05" y="0.05" width="15.9" height="19.9" fill="none"/></g><g transform="translate(2 2)" fill="none" stroke="blue" stroke-width="0.1"><circle cx="10" cy="10" r="10" stroke="none"/><circle cx="10" cy="10" r="9.95" fill="none"/></g><g transform="translate(7 7)" fill="none" stroke="blue" stroke-width="0.1"><circle cx="5" cy="5" r="5" stroke="none"/><circle cx="5" cy="5" r="4.95" fill="none"/></g><rect width="24" height="24" fill="#fff" opacity="0"/><g transform="translate(-140.144 -57.709)"><g transform="translate(142.144 62.866)"><g clip-path="url(#a)"><path d="M142.144,75.542c6.667,3.5,13.334-3.5,20,0V63.877c-6.666-3.5-13.333,3.5-20,0Z" transform="translate(-142.144 -62.866)" fill="#fff"/><g transform="translate(0 1.01)"><path d="M142.144,75.88a9.521,9.521,0,0,0,5.833.9V65.119a9.521,9.521,0,0,1-5.833-.9Z" transform="translate(-142.144 -64.215)" fill="#093189"/></g><g transform="translate(0 5.832)"><path d="M142.144,77.5c6.667,3.5,13.334-3.5,20,0V71.663c-6.666-3.5-13.333,3.5-20,0Z" transform="translate(-142.144 -70.652)" fill="#b3131b"/></g><g transform="translate(2.467 3.394)"><path d="M145.89,67.4q-.225.665-.452,1.317c.231.118.463.226.694.326Q146.011,68.219,145.89,67.4Z" transform="translate(-145.438 -67.397)" fill="#fff"/></g><g transform="translate(2.675 3.394)"><path d="M145.959,67.4q.225.725.449,1.437-.346.084-.694.142Q145.837,68.189,145.959,67.4Z" transform="translate(-145.715 -67.397)" fill="#fff"/></g><g transform="translate(2.849 4.392)"><path d="M147.4,68.824a10,10,0,0,1-1.456-.094v.73A13.114,13.114,0,0,0,147.4,68.824Z" transform="translate(-145.947 -68.73)" fill="#fff"/></g><g transform="translate(2.697 4.486)"><path d="M147.352,68.855c-.394.288-.787.557-1.18.8-.143-.212-.285-.428-.427-.647A9.984,9.984,0,0,0,147.352,68.855Z" transform="translate(-145.745 -68.855)" fill="#fff"/></g><g transform="translate(1.53 4.104)"><path d="M144.187,68.345c.395.405.788.779,1.182,1.126.143-.175.285-.353.427-.535A10.017,10.017,0,0,1,144.187,68.345Z" transform="translate(-144.187 -68.345)" fill="#fff"/></g><g transform="translate(1.53 4.104)"><path d="M144.187,68.345a8.835,8.835,0,0,0,1.46.308v.729A15.185,15.185,0,0,1,144.187,68.345Z" transform="translate(-144.187 -68.345)" fill="#fff"/></g><g transform="translate(2.632 4.691)"><path d="M146.8,70.544q-.225-.7-.449-1.415c-.231.055-.462.1-.694.138Q146.229,69.941,146.8,70.544Z" transform="translate(-145.658 -69.129)" fill="#fff"/></g><g transform="translate(2.595 4.599)"><path d="M146.788,70.513c-.393-.3-.787-.627-1.18-.98.144-.172.288-.348.431-.527Q146.414,69.775,146.788,70.513Z" transform="translate(-145.608 -69.006)" fill="#fff"/></g><g transform="translate(2.061 4.571)"><path d="M144.9,70.274a12.907,12.907,0,0,0,1.18-.664c-.144-.211-.287-.424-.431-.641Q145.271,69.638,144.9,70.274Z" transform="translate(-144.896 -68.969)" fill="#fff"/></g><g transform="translate(2.061 4.582)"><path d="M144.9,70.278q.225-.64.449-1.294.347.175.694.322C145.659,69.654,145.277,69.979,144.9,70.278Z" transform="translate(-144.896 -68.984)" fill="#fff"/></g></g></g></g></g></svg>